<svg xmlns="http://www.w3.org/2000/svg" width="160" height="160" fill="none" viewBox="0 0 160 160">
    <path fill="#EE3C39" d="M68.706 115.519c1.796 3.499-2.543 5.286-1.378 8.353 1.165 3.066 1.38 10.631 1.378 11.286.012 1.24.184 2.735 1.688 3.329.94.358 4.366.985 6.008-.647.472-.476.632-1.35.768-1.793.157-.693-.311-2.655-.311-2.655-.096-1.187-.25-11.133-.324-13.225"/>
    <path stroke="#2D2757" stroke-linecap="round" stroke-linejoin="round" stroke-width="3.196" d="M68.706 115.519c1.796 3.499-2.543 5.286-1.378 8.353 1.165 3.066 1.38 10.631 1.378 11.286.012 1.24.184 2.735 1.688 3.329.94.358 4.366.985 6.008-.647.472-.476.632-1.35.768-1.793.157-.693-.311-2.655-.311-2.655-.096-1.187-.25-11.133-.324-13.225"/>
    <path fill="#EE3C39" d="M92.386 117.19c-1.796 3.499-.714-.088-1.88 2.978-1.165 3.066-1.54 14.336-1.537 14.99-.012 1.241-.184 2.736-1.689 3.33-.939.357-4.365.985-6.007-.647-.472-.477-.632-1.35-.769-1.793-.156-.693.312-2.655.312-2.655.096-1.187.25-11.133.323-13.225"/>
    <path stroke="#2D2757" stroke-linecap="round" stroke-linejoin="round" stroke-width="3.196" d="M92.386 117.19c-1.796 3.499-.714-.088-1.88 2.978-1.165 3.066-1.54 14.336-1.537 14.99-.012 1.241-.184 2.736-1.689 3.33-.939.357-4.365.985-6.007-.647-.472-.477-.632-1.35-.769-1.793-.156-.693.312-2.655.312-2.655.096-1.187.25-11.133.323-13.225"/>
    <path fill="#EB3323" stroke="#2D2757" stroke-width="3.2" d="M138.762 51.703l.002.007c1.322 4.827 1.979 12.401 2.296 18.889.157 3.218.229 6.127.262 8.231.017 1.052.023 1.902.026 2.488l.001.673V82.221h0l1.6.009-1.6-.008V82.243l-.001.043v.173l-.005.67c-.005.584-.015 1.43-.035 2.477-.041 2.095-.123 4.991-.287 8.198-.331 6.458-.986 14.013-2.259 18.851-1.331 4.937-5.228 8.834-10.166 10.165-2.346.616-6.591 1.105-11.773 1.477-5.141.369-11.072.616-16.705.78-5.63.165-10.95.247-14.862.289-1.956.02-3.56.03-4.674.036l-1.287.004-.336.001H78.846v1.6l-.001-1.6h-.113l-.335-.001-1.284-.005c-1.111-.005-2.71-.016-4.662-.037-3.904-.043-9.213-.129-14.837-.3-5.626-.171-11.553-.428-16.698-.811-5.189-.387-9.447-.895-11.815-1.536l-.002-.001c-4.941-1.33-8.84-5.229-10.171-10.169-1.272-4.782-1.928-12.335-2.258-18.809-.164-3.213-.246-6.12-.287-8.223-.02-1.051-.03-1.901-.036-2.487l-.004-.673V82.124h-1.6 1.6V81.894l.004-.67c.005-.584.016-1.43.036-2.477.041-2.095.123-4.992.287-8.199.33-6.458.986-14.013 2.258-18.85 1.332-4.94 5.338-8.943 10.169-10.272 2.346-.616 6.59-1.104 11.77-1.476 5.14-.369 11.072-.616 16.705-.78 5.63-.165 10.95-.247 14.862-.289 1.956-.02 3.56-.03 4.674-.036l1.287-.004H78.844v-1.6 1.6h.45c.295 0 .73.002 1.287.005 1.114.005 2.717.016 4.673.037 3.912.043 9.231.129 14.861.3 5.633.17 11.564.428 16.703.811 5.186.387 9.429.895 11.768 1.535l.006.002c4.941 1.33 8.841 5.23 10.17 10.171z"/>
    <path fill="#fff" d="M66.268 103.552c0 1.281 1.386 2.082 2.495 1.443l30.35-17.48c1.111-.64 1.111-2.245 0-2.885l-30.35-17.48c-1.11-.64-2.495.162-2.495 1.442v34.96zM48.842 58.773c-.1.078-.12.255-.219.334-.01.089-.11.167-.11.167-.108.167.11-.167 0 0-.108.167-.228.423-.337.59-.219.334-.437.668-.645.914-.526.658-1.14 1.305-1.676 2.052-.406.402-.233 1.231.18 1.549.501.327 1.142.222 1.548-.18.615-.648 1.229-1.296 1.765-2.042.536-.747 1.092-1.671 1.55-2.517.239-.511-.122-1.272-.555-1.412-.69-.26-1.262.033-1.501.545zM52.87 59.688c-.645.914-1.211 1.927-1.6 2.96-.12.256-.073.62-.005.808.058.277.304.485.56.605.521.15 1.173-.044 1.412-.556.25-.6.488-1.111.816-1.613-.01.09-.11.168-.12.256.219-.334.448-.757.666-1.09.328-.502.311-1.133-.18-1.55-.501-.327-1.22-.32-1.548.18zM101.845 55.84c-.734.903-1.468 1.807-2.191 2.622-.406.402-.233 1.23.18 1.548.501.328 1.142.223 1.548-.18.734-.903 1.468-1.806 2.191-2.621.407-.403.233-1.232-.179-1.549-.58-.427-1.221-.321-1.549.18zM106.565 56.209c-.13.344-.348.678-.478 1.022-.109.168-.13.345-.229.423-.01.089-.109.167-.109.167-.099.079-.01.09.01-.088-.01.088-.01.088-.109.167-.338.59-.775 1.258-1.202 1.838-.327.5-.222 1.142.18 1.548.502.328 1.133.311 1.549-.18.952-1.237 1.748-2.673 2.356-4.04.239-.512-.044-1.174-.556-1.413-.6-.249-1.173.044-1.412.556z"/>
    <path fill="#fff" stroke="#2D2757" stroke-linecap="round" stroke-linejoin="round" stroke-width="3.2" d="M94.924 45.596c.344 7.065-2.085 14.603-8.613 13.033-3.934-.983-6.51-5.675-6.855-12.74-.344-7.065 2.05-12.847 7.141-12.95 5.002-.206 7.983 5.592 8.327 12.657zM70.051 58.973c4.734-.184 8.35-6.046 8.075-13.093-.273-7.047-4.333-12.61-9.067-12.426-4.734.184-8.35 6.046-8.075 13.093.274 7.047 4.333 12.61 9.067 12.426z"/>
    <path fill="#2D2757" d="M73.14 53.094c2.582-.1 4.556-3.234 4.41-7-.146-3.765-2.358-6.736-4.94-6.636-2.582.1-4.557 3.234-4.41 7 .146 3.765 2.358 6.736 4.94 6.636zM91.081 52.373c2.418-.157 4.177-3.376 3.93-7.19-.247-3.815-2.408-6.78-4.825-6.624-2.418.157-4.178 3.376-3.93 7.19.247 3.816 2.408 6.78 4.825 6.624z"/>
    <path fill="#EB3323" d="M27.937 66.947s-3.277-2.398-9.305-9.088c-3.292-3.621-6.13-2.665-7.294 0-1.165 2.666 1.013 5.282 2.33 7.193 2.128 3.068 8.696 8.685 8.696 8.685"/>
    <path stroke="#2D2757" stroke-linecap="round" stroke-linejoin="round" stroke-width="3.2" d="M27.937 66.947s-3.277-2.398-9.305-9.088c-3.292-3.621-6.13-2.665-7.294 0-1.165 2.666 1.013 5.282 2.33 7.193 2.128 3.068 8.696 8.685 8.696 8.685"/>
    <path fill="#EB3323" d="M131.507 66.98s3.311-2.676 9.339-9.366c3.293-3.621 6.13-2.665 7.295 0 1.165 2.666-1.013 5.282-2.33 7.193-2.128 3.068-8.732 8.964-8.732 8.964"/>
    <path stroke="#2D2757" stroke-linecap="round" stroke-linejoin="round" stroke-width="3.2" d="M131.507 66.98s3.311-2.676 9.339-9.366c3.293-3.621 6.13-2.665 7.295 0 1.165 2.666-1.013 5.282-2.33 7.193-2.128 3.068-8.732 8.964-8.732 8.964"/>
</svg>
