<svg xmlns="http://www.w3.org/2000/svg" width="70" height="70" fill="none" viewBox="0 0 70 70">
    <path fill="#000" fill-opacity=".08" fill-rule="evenodd" d="M35 6.806c5.517 0 10.524 2.898 13.313 7.504l1.71-1.979c1.716-1.983 4.712-2.194 6.687-.468 1.745 1.526 2.119 4.074.899 6.093l-.195.298-.24.302-6.618 7.647v10.741c0 1.752-.29 3.436-.823 5.007l.108.11c.873-1.745 2.937-2.594 4.813-1.907 2.017.738 3.054 2.971 2.315 4.988-2.655 7.255-8.837 12.636-16.33 14.46l-.78.174.003 7.307h-9.723l-.002-7.307-.686-.152c-1.561-.374-3.075-.904-4.52-1.581l-.716-.35-.613-.328-3.625 4.193c-1.567 1.811-4.2 2.144-6.15.874l-.273-.192-.263-.214c-1.746-1.526-2.12-4.074-.9-6.093l.196-.298.238-.302 3.518-4.07-.008-.008.041-.052-.254-.34c-1.131-1.52-2.069-3.178-2.789-4.941l-.295-.762c-.74-2.017.294-4.251 2.31-4.991 1.92-.705 4.039.2 4.875 2.03l.232.577.122.002c-.595-1.468-.964-3.032-1.087-4.655l-.037-.678-.008-.5V22.36c0-8.59 6.964-15.555 15.555-15.555zm1.361 35.673c2.396-.568 4.226-2.612 4.451-5.145l-4.45 5.145zm-7.159-20.794c.315-2.89 2.8-5.157 5.798-5.157l.35.01c2.668.16 4.895 2.121 5.383 4.744l.274 1.472-11.84 13.687V22.36l.009-.34.026-.336z" clip-rule="evenodd"/>
    <path fill="#fff" fill-rule="evenodd" d="M46.992 15.916C44.694 11.65 40.186 8.75 35 8.75c-7.517 0-13.61 6.094-13.61 13.611v14.583l.007.468c.074 2.2.67 4.268 1.67 6.081l4.315-4.974c-.105-.509-.16-1.035-.16-1.575V22.361l.01-.388c.202-4.115 3.603-7.39 7.768-7.39 3.806 0 6.973 2.733 7.645 6.343l4.346-5.01zm-26.688 30.76c-.725-1.088-1.329-2.269-1.79-3.526-.37-1.008-1.488-1.526-2.496-1.156-1.008.37-1.525 1.487-1.155 2.496.694 1.891 1.649 3.64 2.819 5.212l2.622-3.025zM55.43 13.328c1.09.953 1.266 2.57.45 3.73l-.175.227-7.094 8.196v11.464c0 7.518-6.094 13.612-13.61 13.612-2.396 0-4.647-.62-6.602-1.705l-2.629 3.036c2.707 1.634 5.884 2.557 9.23 2.557 7.424 0 14.017-4.547 16.491-11.307.37-1.009 1.486-1.527 2.495-1.158 1.008.37 1.527 1.486 1.157 2.495-2.708 7.397-9.4 12.616-17.227 13.665v7h-5.832l-.001-7c-3.22-.432-6.249-1.57-8.886-3.275l-4.69 5.422c-1.012 1.169-2.774 1.292-3.936.276-1.09-.953-1.267-2.57-.451-3.73l.176-.227 4.641-5.366-.007-.008 2.574-2.968.003.008 2.662-3.082.918-1.056 26.407-30.53c1.011-1.169 2.773-1.292 3.936-.276zM32.367 44.265l10.411-12.04v4.72l-.01.388c-.202 4.115-3.602 7.39-7.768 7.39-.924 0-1.811-.162-2.633-.458z" clip-rule="evenodd"/>
</svg>
