<svg xmlns="http://www.w3.org/2000/svg" width="70" height="70" fill="none" viewBox="0 0 70 70">
    <path fill="#fff" fill-rule="evenodd" d="M55.204 25.043c2.294-1.08 5.03-.098 6.11 2.196.289.612.438 1.28.438 1.957v11.61c0 2.535-2.055 4.59-4.59 4.59-.682 0-1.355-.151-1.97-.443l-6.611-3.14c-1.602-.76-2.622-2.374-2.622-4.147v-5.354c0-1.778 1.026-3.396 2.634-4.153l6.611-3.116z" clip-rule="evenodd"/>
    <path fill="#fff" fill-rule="evenodd" d="M46.156 21.025l3.266-3.258c.786-.859 2.12-.918 2.98-.131.858.787.917 2.12.13 2.98l-2.984 2.977c.974 1.25 1.546 2.772 1.546 4.414v13.986c0 4.258-3.843 7.71-8.584 7.71H23.37l-5.707 5.692c-.787.86-2.121.918-2.98.132-.86-.787-.918-2.121-.132-2.98l3.004-2.996c-.075-.014-.15-.028-.224-.044l5.142-5.143h.282l18.778-18.727H41.2l4.71-4.711c.083.032.165.065.246.099zm-1.172 7.12l-16.262 16.22h13.302c1.637 0 2.965-1.193 2.965-2.664V28.3c0-.052-.002-.104-.005-.155zm-25.236-2.508H38.45l5.264-5.265c-.393-.05-.795-.075-1.204-.075H19.262c-4.74 0-8.584 3.452-8.584 7.71v13.986c0 2.963 1.86 5.535 4.59 6.826l4.455-4.455c-1.626-.012-2.94-1.2-2.94-2.663V28.3c0-1.471 1.328-2.663 2.965-2.663z" clip-rule="evenodd"/>
    <path stroke="#fff" stroke-linecap="round" stroke-linejoin="round" stroke-width="3" d="M51.528 19.444l-35 35"/>
</svg>
