<svg xmlns="http://www.w3.org/2000/svg" width="32" height="33" fill="none" viewBox="0 0 32 33">
    <path fill="#1C1A42" fill-rule="evenodd" d="M23.47 13.298h-5.022l1.694-7.12c.128-.537-.116-1.097-.598-1.355-.491-.262-1.092-.135-1.444.3L7.627 18.102c-.287.354-.35.848-.164 1.268.19.428.606.705 1.067.705h5.023l-1.696 7.12c-.128.537.116 1.098.598 1.355.168.09.354.137.541.137.348 0 .68-.159.904-.436l10.473-12.98c.287-.354.35-.849.164-1.27-.19-.427-.605-.704-1.067-.704z" clip-rule="evenodd"/>
</svg>
