<svg xmlns="http://www.w3.org/2000/svg" xmlns:xlink="http://www.w3.org/1999/xlink" width="512" height="512" viewBox="0 0 512 512">
    <defs>
        <path id="a" d="M53.47 2.807H2.604v50.707H53.47V2.807z"/>
        <path id="c" d="M367.989 216.519H-.001V.456h367.99z"/>
    </defs>
    <g fill="none" fill-rule="evenodd">
        <path fill="none" d="M0 0h512v512H0z"/>
        <path fill="#FFF" d="M143.205 178.253c-2.538 9.114-4.027 18.545-4.298 28.167 2.927 6.552 41.31 19.184 118.096 19.184 76.787 0 115.169-12.632 118.097-19.184a118.322 118.322 0 0 0-2.482-20.939c-.496-2.36-1.094-4.707-1.742-7.046-1.164-4.203-2.608-8.352-4.244-12.437-.293-.73-.54-1.476-.849-2.202-18.573-43.581-61.276-71.746-108.78-71.746-12.834 0-25.422 2.024-37.403 6.016-23.558 7.834-43.737 22.63-58.367 42.79-5.676 7.813-10.21 16.24-13.75 25.045"/>
        <path fill="#E2EEFF" d="M287.42 234.625l90.104-21.109s1.553-111.015-132.048-124.306c0 0 50.1 26.971 41.944 145.415z"/>
        <path fill="#20E5C4" d="M342.766 451c-.007 18.847-38.82 34.104-86.686 34.086-47.864-.018-86.668-15.302-86.662-34.148.007-18.837 38.822-34.096 86.687-34.079 47.864.018 86.668 15.305 86.66 34.142"/>
        <path fill="#FFD41F" d="M172.167 390.256c-8.1 5.615-12.756 12.116-12.759 19.056-.003 9.214 8.164 17.671 21.77 24.296 15.487-9.975 43.249-16.619 74.93-16.607 31.68.011 59.438 6.676 74.918 16.662 13.61-6.616 21.783-15.067 21.788-24.281.002-6.94-4.65-13.445-12.746-19.065-21.13 8.8-50.92 14.286-83.956 14.274-33.037-.013-62.821-5.52-83.945-14.335"/>
        <path fill="#CF6" d="M256.097 447.774c30.217.01 57.193-5.49 74.929-14.112-16.625-10.249-40.855-16.91-74.93-16.923-34.073-.012-58.313 6.057-74.919 16.87 17.73 8.633 44.702 14.154 74.92 14.165z"/>
        <path fill="#FF4893" d="M153.59 336.955c-8.573 6.425-13.45 13.75-13.453 21.534-.004 12.326 12.195 23.517 32.03 31.794 16.673-11.556 48.015-19.337 83.958-19.324 35.941.013 67.278 7.817 83.944 19.385 19.84-8.263 32.05-19.445 32.053-31.771.003-7.784-4.87-15.113-13.438-21.544-24.68 11.534-61.456 18.854-102.553 18.84-41.102-.014-77.87-7.362-102.54-18.914"/>
        <path fill="#FF6D6D" d="M256.112 404.59c33.036.013 62.826-5.474 83.956-14.273-16.665-11.568-38.84-19.813-83.95-19.813-45.112 0-67.279 8.196-83.951 19.752 21.124 8.815 50.908 14.322 83.945 14.335z"/>
        <path fill="#66BAFF" d="M390.666 302.468c.011-29.524-60.21-53.463-134.498-53.49-74.29-.027-134.525 23.868-134.535 53.392-.005 13.187 12.036 25.255 31.957 34.584 19.469-14.591 58.081-24.523 102.556-24.506 44.471.016 83.079 9.976 102.537 24.58 19.93-9.314 31.978-21.373 31.983-34.56"/>
        <path fill="#716EF9" d="M256.145 356.635c41.098.014 72.81-5.445 102.539-19.614-19.46-14.605-58.066-24.564-102.539-24.58-44.475-.016-83.086 9.916-102.555 24.506 30.77 14.17 61.454 19.673 102.555 19.688z"/>
        <g transform="translate(242.922 27.11)">
            <mask id="b" fill="#fff">
                <use xlink:href="#a"/>
            </mask>
            <path fill="#1C1A42" d="M22.356 81.845H2.604V12.464c0-5.333 4.421-9.657 9.875-9.657h58.309v19.314H22.356v59.724z" mask="url(#b)"/>
        </g>
        <g transform="translate(72 72.375)">
            <mask id="d" fill="#fff">
                <use xlink:href="#c"/>
            </mask>
            <path fill="#1C1A42" d="M69.188 133.15c1.085-21.762 8.54-42.522 21.652-60.204 14.248-19.234 33.904-33.352 56.857-40.829 11.654-3.806 23.907-5.738 36.42-5.738 46.268 0 87.856 26.87 105.948 68.45a109.284 109.284 0 0 1 6.653 20.682 110.254 110.254 0 0 1 2.324 17.64c-8.86 6.707-49.176 15.78-114.926 15.78-65.753 0-106.071-9.074-114.928-15.782zm298.644 11.38c-1.172-11.826-9.964-28.956-45.128-43.568a192.538 192.538 0 0 0-5.632-2.215c-1.583-5.534-3.509-11.013-5.83-16.356C289.583 32.617 239.806.456 184.428.456c-14.958 0-29.633 2.316-43.604 6.882-27.468 8.946-50.996 25.837-68.033 48.839-9.473 12.773-16.449 26.902-20.802 41.815-6.434 2.598-28.622 11.992-37.316 21.28l-.21.191c-.336.31-.67.616-.993.929-.334.314-.66.63-1.004.973-.392.395-.781.791-1.046 1.074-.356.366-.7.735-1.031 1.105l-.132.149c-.322.368-.641.734-.952 1.108-.242.283-.484.576-.72.866l-.012.014-.061.073-.112.142c-.059.075-.114.152-.172.227-1.96 2.43-3.653 5.004-4.951 7.725-11.02 23.087 7.274 44.293 32.2 55.89.528.244 1.036.419 1.534.563 6.102 2.956 13.138 5.835 21.292 8.58 33.775 11.374 78.455 17.638 125.811 17.638 47.358 0 92.04-6.264 125.814-17.637 47.988-16.162 58.061-36.839 58.061-51.338 0-1.036-.053-2.05-.157-3.014" mask="url(#d)"/>
        </g>
        <path fill="#131131" d="M439.84 218.973c.099.944.15 1.935.15 2.946 0 14.5-10.074 35.176-58.062 51.338-33.774 11.373-78.456 17.637-125.814 17.637-47.356 0-92.036-6.264-125.81-17.637-8.155-2.746-15.19-5.625-21.293-8.58a10.598 10.598 0 0 1-1.533-.565c-20.966-9.753-37.24-26.305-35.325-45.056 1.66 16.251 16.627 30.357 35.325 39.056.527.245 1.035.42 1.533.564 6.102 2.956 13.138 5.835 21.292 8.581 33.775 11.373 78.455 17.637 125.811 17.637 47.358 0 92.04-6.264 125.814-17.637 44.71-15.058 56.508-34.035 57.911-48.284z"/>
        <path fill="#559AFF" d="M131.156 229.785c0 6.562-5.336 11.881-11.92 11.881-6.582 0-11.918-5.32-11.918-11.881 0-6.562 5.336-11.881 11.919-11.881s11.92 5.32 11.92 11.881" opacity=".15"/>
        <path fill="#559AFF" d="M197.715 250.724c0 6.562-5.337 11.882-11.92 11.882-6.582 0-11.919-5.32-11.919-11.882 0-6.561 5.337-11.881 11.92-11.881 6.582 0 11.919 5.32 11.919 11.881M338.766 250.724c0 6.562-5.336 11.882-11.92 11.882-6.582 0-11.918-5.32-11.918-11.882 0-6.561 5.336-11.881 11.918-11.881 6.584 0 11.92 5.32 11.92 11.881" opacity=".2"/>
        <path fill="#559AFF" d="M267.667 256.574c0 6.562-5.337 11.881-11.92 11.881-6.582 0-11.918-5.32-11.918-11.881 0-6.562 5.336-11.881 11.919-11.881 6.582 0 11.92 5.32 11.92 11.88" opacity=".25"/>
        <path fill="#559AFF" d="M404.67 229.785c0 6.562-5.336 11.882-11.918 11.882-6.583 0-11.919-5.32-11.919-11.882 0-6.561 5.336-11.88 11.919-11.88 6.582 0 11.919 5.319 11.919 11.88" opacity=".15"/>
    </g>
</svg>
