<svg width="40" height="40" viewBox="0 0 40 40" fill="none" xmlns="http://www.w3.org/2000/svg">
<rect width="40" height="40" rx="20" fill="white"/>
<path d="M11.9377 24.2859C11.0454 24.8312 10.5264 25.4719 10.5264 26.1626C10.5264 27.0623 11.4096 27.8847 12.8618 28.5118C13.9333 28.0039 16.8292 27.0601 19.9795 27.0601C23.1207 27.0601 25.1847 27.638 27.12 28.5027C28.5586 27.8756 29.4326 27.0577 29.4326 26.1626C29.4326 25.4764 28.9227 24.8358 28.035 24.295C25.9682 25.1175 23.1139 25.5128 19.9772 25.5128C16.8406 25.5083 14.0045 25.1129 11.9377 24.2859Z" fill="#FFD41E"/>
<path d="M9.79799 18.9787C9.01953 19.5967 8.57794 20.2964 8.57794 21.0416C8.57794 22.3094 9.86173 23.459 11.9422 24.286C14.4352 23.3979 16.6268 22.7438 20.0045 22.762C23.3822 22.7801 25.6014 23.397 27.9891 24.272C28.0164 24.2856 28.0122 24.2814 28.0441 24.295C30.1337 23.4635 31.4266 22.3139 31.4266 21.0416C31.4266 20.301 30.985 19.6012 30.2065 18.9787C27.6663 20.2055 24.1791 21.0234 20.0637 21.0234C15.9483 21.0234 12.4566 20.1147 9.79799 18.9787Z" fill="#FF4893"/>
<path d="M11.9377 24.2859C14.0045 25.1129 16.8543 25.6218 20 25.6218C23.1366 25.6218 25.9774 25.1129 28.0396 24.295C26.378 23.2726 23.3916 22.591 19.9818 22.591C16.5857 22.591 13.6039 23.268 11.9377 24.2859Z" fill="#FF717C"/>
<path d="M12.8663 28.5118C12.3838 28.8844 12.1106 29.2979 12.1106 29.7386C12.1106 31.3244 15.6433 32.6149 20 32.6149C24.3567 32.6149 27.8893 31.329 27.8893 29.7386C27.8893 29.2979 27.6116 28.8753 27.1245 28.5027C25.5221 29.157 22.8362 29.7159 19.9863 29.7159C17.1456 29.7159 14.5963 29.2024 12.8663 28.5118Z" fill="#00EAC3"/>
<path d="M12.8663 28.5118C14.6008 29.2615 17.1456 29.7341 19.9863 29.7341C22.8407 29.7341 25.3946 29.257 27.1291 28.5027C25.859 27.5348 23.1457 26.8669 20.0046 26.8669C16.8497 26.8669 14.1274 27.5394 12.8663 28.5118Z" fill="#A6F966"/>
<path d="M33.1429 15.3526C33.1429 12.1764 27.2566 9.60004 20 9.60004C12.7434 9.60004 6.85715 12.1764 6.85715 15.3526C6.85715 16.7294 7.95883 17.9881 9.79802 18.9787C12.138 17.4337 15.5159 16.5386 19.9772 16.5386C24.4386 16.5386 28.208 17.5246 30.2065 18.9787C32.0412 17.9881 33.1429 16.7294 33.1429 15.3526Z" fill="#6CA8FF"/>
<path d="M9.79802 18.9787C12.2062 20.2783 15.8846 21.1098 20 21.1098C24.1154 21.1098 27.7937 20.2783 30.202 18.9832C28.3218 17.4883 24.4614 16.4614 20 16.4614C15.5386 16.4614 11.6782 17.4837 9.79802 18.9787Z" fill="#716DF9"/>
</svg>
