<svg xmlns="http://www.w3.org/2000/svg" width="70" height="70" fill="none" viewBox="0 0 70 70">
    <path fill="#000" fill-opacity=".08" fill-rule="evenodd" d="M50.523 21.369C49.994 13.204 43.228 6.806 35 6.806c-8.59 0-15.555 6.964-15.555 15.555v14.584l.008.5.025.502c.129 1.974.623 3.845 1.414 5.547l-.139-.002c-.15-.33-.288-.668-.414-1.012-.74-2.016-2.974-3.051-4.99-2.311-2.017.74-3.052 2.974-2.312 4.99l.218.57.253.609c2.96 6.85 9.138 11.836 16.5 13.412l.13.026.001 7.307h9.723l-.002-7.307.778-.173c7.494-1.825 13.675-7.206 16.331-14.46.739-2.018-.298-4.251-2.315-4.99-2.017-.738-4.25.299-4.989 2.316-.127.348-.267.689-.418 1.023h-.132c.924-1.99 1.44-4.209 1.44-6.547V22.36l-.007-.5-.025-.492zm-21.347.65c.178-3.063 2.717-5.491 5.824-5.491 3.221 0 5.833 2.612 5.833 5.833v14.583l-.01.343c-.177 3.062-2.717 5.49-5.823 5.49-3.222 0-5.834-2.61-5.834-5.833V22.361l.01-.343z" clip-rule="evenodd"/>
    <path fill="#fff" fill-rule="evenodd" d="M21.39 22.361C21.39 14.844 27.483 8.75 35 8.75c7.518 0 13.612 6.094 13.612 13.611v14.583c0 7.518-6.094 13.612-13.611 13.612S21.39 44.462 21.39 36.944V22.361zm21.389 0c0-4.295-3.483-7.778-7.778-7.778-4.296 0-7.778 3.483-7.778 7.778v14.583c0 4.296 3.482 7.778 7.778 7.778 4.296 0 7.778-3.482 7.778-7.778V22.361zm8.713 20.776c.369-1.009 1.486-1.527 2.494-1.158 1.009.37 1.527 1.486 1.158 2.495-2.708 7.397-9.4 12.616-17.227 13.665v7h-5.833v-7c-7.82-1.049-14.509-6.26-17.22-13.65-.37-1.008.147-2.125 1.155-2.495 1.008-.37 2.125.147 2.495 1.156 2.479 6.753 9.067 11.294 16.487 11.294 7.424 0 14.016-4.547 16.49-11.307z" clip-rule="evenodd"/>
</svg>
