<svg xmlns="http://www.w3.org/2000/svg" width="28" height="24" fill="none" viewBox="0 0 28 24">
    <path fill="#fff" fill-rule="evenodd" d="M19.464 3.68c-2.04 0-3.612 1.634-3.612 3.947 0 2.519 1.453 5.074 3.597 5.108 2.162.034 3.648-2.57 3.648-5.108 0-2.312-1.592-3.948-3.633-3.948zM17.529 20.305c1.22-.794 1.945-1.788 1.945-2.866 0-1.206-.907-2.306-2.398-3.139.746-.13 1.554-.203 2.398-.203 3.751 0 6.792 1.42 6.792 3.17s-3.04 3.17-6.792 3.17c-.676 0-1.33-.047-1.945-.133zM9.904 2c-2.376 0-4.21 1.905-4.21 4.6 0 2.936 1.694 5.915 4.192 5.954 2.52.04 4.252-2.996 4.252-5.954 0-2.694-1.855-4.6-4.234-4.6z" clip-rule="evenodd"/>
    <ellipse cx="9.916" cy="17.833" fill="#fff" rx="7.916" ry="3.694"/>
</svg>
