<svg xmlns="http://www.w3.org/2000/svg" width="40" height="40" fill="none" viewBox="0 0 40 40">
    <path fill="#fff" d="M35.543 21.092l-4.139 5.078c-.186.203-.436.309-.749.317-.313.009-.584-.055-.812-.19-.229-.136-.343-.296-.343-.483V23.25h-3.25c-.44 0-.821-.157-1.143-.47-.321-.313-.482-.698-.482-1.155v-3.25c0-.457.16-.842.482-1.155.322-.313.703-.47 1.143-.47h3.25v-2.54c0-.202.114-.372.343-.507.228-.135.5-.199.812-.19.313.008.563.114.75.317l4.138 5.053c.305.305.457.673.457 1.104 0 .432-.152.8-.457 1.105zm-9.28-7.592c-.449 0-.834-.16-1.156-.482-.321-.322-.482-.707-.482-1.156 0-.448-.157-.83-.47-1.142-.313-.313-.698-.47-1.155-.47h-8.125c-.44 0-.821.157-1.143.47-.321.313-.482.698-.482 1.155v16.25c0 .44.16.821.482 1.143.322.321.703.482 1.143.482H23c.457 0 .842-.16 1.155-.482.313-.322.47-.707.47-1.156 0-.448.16-.83.482-1.142.322-.313.707-.47 1.156-.47.448 0 .83.157 1.142.47.313.313.47.698.47 1.155v1.625c0 .897-.317 1.663-.952 2.298s-1.4.952-2.298.952H13.25c-.897 0-1.663-.317-2.298-.952S10 30.648 10 29.75v-19.5c0-.897.317-1.663.952-2.298S12.352 7 13.25 7h11.375c.897 0 1.663.317 2.298.952s.952 1.4.952 2.298v1.625c0 .44-.157.821-.47 1.143-.313.321-.694.482-1.142.482z"/>
</svg>
