<svg xmlns="http://www.w3.org/2000/svg" width="40" height="40" fill="none" viewBox="0 0 40 40">
    <path fill="#fff" fill-rule="evenodd" d="M33.494 14.732l-1.158.414c-.173.06-.332.148-.488.241-.139.088-.271.186-.396.294-.403.348-.718.795-.874 1.319l-.606 2.032c-.079.262-.304.395-.53.395-.225 0-.451-.133-.53-.395L28.307 17c-.258-.863-.911-1.553-1.759-1.854l-1.158-.415c-.489-.175-.489-.867 0-1.04l1.158-.415c.848-.301 1.501-.99 1.759-1.854l.605-2.032c.079-.263.305-.395.53-.395.226 0 .451.132.53.395l.606 2.032c.257.864.91 1.553 1.758 1.854l1.158.415c.489.173.489.865 0 1.04zm-12.423 4.695c0-.963.78-1.744 1.742-1.744.963 0 1.743.78 1.743 1.744 0 .962-.78 1.742-1.743 1.742-.962 0-1.742-.78-1.742-1.742zm-4.7 4.517c-.039-.178.105-.354.288-.354h6.028c.183 0 .328.175.288.354-.384 1.767-1.485 2.65-3.302 2.65s-2.917-.884-3.302-2.65zm-1.506-4.517c0-.963.781-1.744 1.743-1.744.963 0 1.743.78 1.743 1.744 0 .962-.78 1.742-1.743 1.742-.962 0-1.743-.78-1.743-1.742zm18.142-8.03c-.248-.088-.441-.292-.516-.545l-.606-2.032C31.56 7.731 30.578 7 29.442 7c-1.136 0-2.117.731-2.442 1.82l-.362 1.216c-2.101-1.385-4.613-2.196-7.317-2.196C11.964 7.84 6 13.805 6 21.162c0 7.357 5.964 13.32 13.321 13.32 7.357 0 13.32-5.963 13.32-13.32 0-1.017-.124-2.005-.34-2.956l.19-.636c.075-.253.268-.457.516-.546l1.158-.414c1.012-.36 1.692-1.324 1.692-2.4 0-1.074-.68-2.039-1.692-2.4l-1.158-.412z" clip-rule="evenodd"/>
</svg>
