<svg xmlns="http://www.w3.org/2000/svg" width="40" height="40" fill="none" viewBox="0 0 40 40">
    <path fill="#fff" fill-rule="evenodd" d="M17.027 23.3h5.946s-.412 2.652-2.973 2.652-2.973-2.652-2.973-2.652z" clip-rule="evenodd"/>
    <circle cx="16.919" cy="18.862" r="1.584" fill="#fff"/>
    <circle cx="23.124" cy="18.862" r="1.584" fill="#fff"/>
    <path fill="#fff" d="M19.637 7.717c1.355 0 2.684.203 3.952.598.79.246 1.232 1.087.986 1.878-.247.791-1.088 1.232-1.879.986-.979-.305-2.007-.462-3.059-.462-5.68 0-10.283 4.603-10.283 10.283s4.604 10.283 10.284 10.283c4.686 0 8.746-3.163 9.936-7.625.214-.8 1.036-1.276 1.836-1.063.8.214 1.276 1.036 1.063 1.836-1.538 5.768-6.782 9.852-12.835 9.852C12.3 34.283 6.353 28.336 6.353 21c0-7.337 5.947-13.283 13.284-13.283z"/>
    <path fill="#fff" fill-rule="evenodd" d="M33.673 14.6l1.158-.413c.489-.175.489-.867 0-1.042l-1.158-.413c-.848-.303-1.502-.991-1.759-1.854l-.605-2.032c-.157-.527-.903-.527-1.06 0l-.606 2.032c-.257.863-.91 1.551-1.758 1.854l-1.158.413c-.49.175-.49.867 0 1.042l1.158.413c.848.303 1.501.992 1.758 1.854l.606 2.032c.157.527.903.527 1.06 0l.605-2.032c.258-.863.911-1.55 1.759-1.854z" clip-rule="evenodd"/>
</svg>
