<svg xmlns="http://www.w3.org/2000/svg" width="40" height="40" fill="none" viewBox="0 0 40 40">
    <path fill="#fff" fill-rule="evenodd" d="M16.994 7.476C17.714 6.58 18.787 6 20 6c1.214 0 2.286.58 3.007 1.476.268-.061.545-.093.83-.093 1.743 0 3.185 1.188 3.731 2.803 1.968.28 3.432 2.092 3.432 4.205 0 1.3-.551 2.482-1.433 3.267l-2.052 11.915C27.074 32.135 24.929 34 22.425 34H17.22c-2.561 0-4.737-1.949-5.114-4.581l-1.69-11.777C9.544 16.857 9 15.682 9 14.392c0-2.114 1.464-3.926 3.433-4.206.546-1.616 1.988-2.803 3.73-2.803.285 0 .563.032.83.093zm11.829 6.915c0 .928-.564 1.665-1.285 1.901-4.987.927-10.093.926-15.08-.001-.718-.237-1.28-.974-1.28-1.9 0-1.137.84-1.98 1.788-1.98.07 0 .138.004.205.012.29.037.583-.05.811-.24.229-.19.374-.468.403-.77.099-1.03.89-1.768 1.778-1.768.279 0 .54.07.774.195.26.138.563.162.84.067.278-.096.507-.304.635-.577.308-.653.917-1.067 1.588-1.067.672 0 1.28.414 1.588 1.067.128.273.357.481.635.577.277.096.58.071.84-.067.234-.125.496-.195.774-.195.888 0 1.68.738 1.779 1.768.029.302.174.58.402.77.229.19.52.277.811.24.067-.008.135-.012.205-.012.947 0 1.789.843 1.789 1.98zM18.03 29.816c-.524.306-1.171-.088-1.171-.712v-7.136c0-.625.647-1.018 1.171-.712l6.095 3.854c.534.312.534 1.111 0 1.423l-6.095 3.282z" clip-rule="evenodd"/>
</svg>
