<svg xmlns="http://www.w3.org/2000/svg" width="40" height="40" fill="none" viewBox="0 0 40 40">
    <path fill="#fff" fill-rule="evenodd" d="M13 13.5c0-3.866 3.134-7 7-7s7 3.134 7 7V21c0 3.866-3.134 7-7 7s-7-3.134-7-7v-7.5zm11 0c0-2.21-1.79-4-4-4-2.209 0-4 1.79-4 4V21c0 2.21 1.791 4 4 4 2.21 0 4-1.79 4-4v-7.5zm4.481 10.685c.19-.519.764-.785 1.283-.596.519.19.785.765.595 1.283-1.392 3.804-4.834 6.488-8.859 7.028v3.6h-3v-3.6c-4.022-.54-7.461-3.22-8.856-7.02-.19-.518.076-1.093.594-1.283.519-.19 1.093.076 1.283.594C12.796 27.664 16.185 30 20.001 30c3.817 0 7.208-2.339 8.48-5.815z" clip-rule="evenodd"/>
</svg>
