<svg xmlns="http://www.w3.org/2000/svg" width="40" height="40" fill="none" viewBox="0 0 40 40">
    <path fill="#fff" fill-rule="evenodd" d="M31.038 15.5c1.213-.556 2.66-.05 3.23 1.13.153.314.232.658.232 1.006v5.97c0 1.304-1.087 2.361-2.427 2.361-.36 0-.716-.078-1.041-.228l-3.495-1.614c-.846-.392-1.386-1.222-1.386-2.133v-2.754c0-.914.542-1.746 1.393-2.136l3.494-1.602z" clip-rule="evenodd"/>
    <path fill="#fff" fill-rule="evenodd" d="M25.853 12.932l1.628-1.58c.416-.442 1.121-.472 1.576-.067.454.404.485 1.09.07 1.532l-1.532 1.486c.463.622.733 1.364.733 2.162v7.916c0 2.19-2.032 3.965-4.538 3.965H13.121l-2.43 2.358c-.415.441-1.12.472-1.575.067-.454-.404-.485-1.09-.07-1.532l1.104-1.07-.108-.032 2.845-2.767h.148L23.31 15.4h-.175l2.592-2.522.126.054zm-.717 3.757l-8.947 8.68h7.382c.865 0 1.567-.613 1.567-1.37v-7.23c0-.027 0-.053-.002-.08zM11.795 15.4h9.886l2.916-2.837c-.262-.04-.531-.062-.807-.062H11.5c-2.506 0-4.538 1.775-4.538 3.965v7.916c0 1.394.823 2.62 2.067 3.327l2.435-2.369c-.707-.133-1.237-.682-1.237-1.34v-7.23c0-.756.702-1.37 1.568-1.37z" clip-rule="evenodd"/>
    <path stroke="#FF5757" stroke-linecap="round" stroke-linejoin="round" stroke-width="3" d="M28.595 12.215l-18.503 18"/>
</svg>
