<svg xmlns="http://www.w3.org/2000/svg" width="40" height="40" fill="none" viewBox="0 0 40 40">
    <path fill="#fff" fill-rule="evenodd" d="M26.167 9.185C24.985 6.991 22.667 5.5 20 5.5c-3.866 0-7 3.134-7 7V20l.004.24c.038 1.132.345 2.195.86 3.128l2.218-2.558c-.054-.262-.082-.533-.082-.81v-7.5l.005-.2c.104-2.116 1.853-3.8 3.995-3.8 1.957 0 3.586 1.406 3.932 3.262l2.235-2.577zm-13.725 15.82c-.373-.56-.683-1.167-.92-1.814-.191-.518-.766-.784-1.284-.594-.519.19-.785.765-.594 1.283.357.973.848 1.873 1.45 2.68l1.348-1.555zM30.507 7.854c.56.49.65 1.321.232 1.919l-.091.116L27 14.104V20c0 3.866-3.134 7-7 7-1.232 0-2.39-.318-3.395-.877l-1.352 1.562C16.645 28.525 18.28 29 20 29c3.818 0 7.209-2.339 8.481-5.815.19-.519.764-.785 1.283-.596.519.19.785.765.595 1.283-1.392 3.805-4.834 6.489-8.86 7.028l.001 3.6h-3v-3.6c-1.657-.222-3.214-.807-4.57-1.684l-2.412 2.788c-.52.601-1.427.665-2.025.142-.56-.49-.65-1.321-.232-1.919l.091-.116 2.387-2.76-.004-.004 1.324-1.526.002.004 1.369-1.585.472-.543 13.58-15.701c.52-.601 1.427-.665 2.025-.142zm-11.861 15.91L24 17.574V20l-.005.2C23.891 22.316 22.142 24 20 24c-.475 0-.931-.083-1.354-.235z" clip-rule="evenodd"/>
    <path stroke="#FF5757" stroke-linecap="round" stroke-linejoin="round" stroke-width="3" d="M29.5 9l-19 22"/>
</svg>
