<svg xmlns="http://www.w3.org/2000/svg" width="40" height="40" fill="none" viewBox="0 0 40 40">
    <path fill="#fff" d="M20.014 8c.94.01 1.877.114 2.796.311.196.042.373.142.507.285.133.143.217.323.24.514l.217 1.88c.031.264.126.519.278.742.152.223.356.41.596.543.24.133.51.211.787.226.277.016.555-.032.81-.138l1.795-.757c.182-.077.385-.098.58-.06.195.039.373.135.51.274 1.297 1.33 2.262 2.927 2.825 4.668.059.182.057.378-.005.56-.063.182-.182.341-.343.455l-1.592 1.127c-.224.158-.406.364-.531.603-.126.238-.191.5-.191.767s.065.53.19.768c.126.238.308.444.532.602l1.593 1.126c.161.114.281.273.344.455.062.182.064.379.005.562-.562 1.74-1.528 3.336-2.825 4.667-.136.14-.313.235-.508.274-.194.038-.397.018-.579-.059l-1.803-.759c-.255-.107-.532-.155-.809-.14-.277.015-.547.092-.787.225-.24.134-.445.32-.597.543-.151.224-.246.478-.276.743l-.217 1.878c-.021.19-.104.368-.235.51-.131.143-.305.243-.498.287-1.856.424-3.79.424-5.647 0-.193-.044-.367-.144-.498-.287-.131-.142-.214-.32-.235-.51l-.216-1.875c-.031-.265-.127-.518-.279-.74-.152-.223-.356-.408-.596-.541-.24-.133-.51-.21-.786-.225-.277-.015-.554.033-.807.14l-1.803.758c-.182.076-.384.097-.58.058-.194-.038-.372-.134-.508-.274-1.297-1.332-2.263-2.93-2.825-4.672-.059-.183-.057-.38.005-.562.063-.182.183-.34.344-.455l1.593-1.127c.224-.158.406-.364.532-.602s.191-.501.191-.768-.065-.53-.191-.768-.308-.444-.532-.602l-1.593-1.125c-.16-.113-.28-.272-.343-.455-.062-.182-.064-.378-.005-.561.563-1.741 1.528-3.337 2.825-4.668.137-.14.315-.235.51-.273.195-.039.398-.018.58.06l1.794.756c.255.106.533.154.81.138.278-.015.548-.093.789-.227.24-.134.445-.32.597-.543.152-.224.247-.478.278-.744l.218-1.878c.022-.192.106-.372.24-.515.134-.144.312-.243.507-.285.92-.196 1.859-.299 2.822-.31zm-.016 8.308c-1.02 0-1.998.389-2.719 1.081-.721.693-1.126 1.632-1.126 2.611 0 .98.405 1.919 1.126 2.611.721.693 1.7 1.082 2.72 1.082 1.019 0 1.997-.39 2.718-1.082.721-.692 1.127-1.631 1.127-2.61 0-.98-.406-1.92-1.127-2.612-.72-.692-1.699-1.081-2.719-1.081z"/>
</svg>
