<svg xmlns="http://www.w3.org/2000/svg" width="24" height="24" fill="none" viewBox="0 0 24 24">
    <circle cx="12" cy="12" r="9.231" fill="#DF4B38"/>
    <path fill="#fff" fill-rule="evenodd" d="M6.926 12.006C6.825 9.39 9.165 6.97 11.84 6.938c1.363-.113 2.69.405 3.72 1.251-.422.456-.853.907-1.313 1.328-.908-.54-2.001-.952-3.062-.586-1.712.477-2.749 2.457-2.115 4.098.524 1.714 2.651 2.654 4.319 1.934.863-.303 1.432-1.083 1.682-1.922-.99-.02-1.979-.007-2.969-.034-.002-.577-.005-1.151-.002-1.728 1.65-.002 3.302-.007 4.955.008.101 1.412-.111 2.925-1.049 4.059-1.284 1.619-3.656 2.094-5.586 1.46-2.048-.66-3.537-2.682-3.493-4.8" clip-rule="evenodd"/>
</svg>
