<svg xmlns="http://www.w3.org/2000/svg" width="24" height="24" fill="none" viewBox="0 0 24 24">
    <mask id="ir9cbx6h3a" width="20" height="20" x="2" y="2" maskUnits="userSpaceOnUse">
        <path fill="#fff" fill-rule="evenodd" d="M11.876 2.77c-5 .065-9.04 4.106-9.106 9.105v.247c.06 4.553 3.414 8.309 7.788 8.997v-6.451H8.214v-2.669h2.344V9.966c0-2.313 1.378-3.592 3.487-3.592 1.01 0 2.066.181 2.066.181v2.272h-1.164c-1.146 0-1.504.711-1.504 1.442v1.73h2.56l-.41 2.669h-2.15v6.451c4.412-.694 7.788-4.512 7.788-9.12 0-5.055-4.066-9.163-9.107-9.23h-.248z" clip-rule="evenodd"/>
    </mask>
    <g mask="url(#ir9cbx6h3a)">
        <path fill="#1877F2" fill-rule="evenodd" d="M-1.846 25.734h27.692v-27.58H-1.846v27.58z" clip-rule="evenodd"/>
    </g>
</svg>
