<svg xmlns="http://www.w3.org/2000/svg" width="24" height="24" fill="none" viewBox="0 0 24 24">
    <mask id="5i9ell4sca" width="20" height="20" x="2" y="2" maskUnits="userSpaceOnUse">
        <path fill="#fff" fill-rule="evenodd" d="M12 2.769c5.098 0 9.23 4.133 9.23 9.23 0 5.099-4.132 9.232-9.23 9.232-5.098 0-9.23-4.133-9.23-9.231S6.901 2.769 12 2.769z" clip-rule="evenodd"/>
    </mask>
    <g mask="url(#5i9ell4sca)">
        <path fill="#000" fill-rule="evenodd" d="M-1.846-1.846h27.692v27.692H-1.846V-1.846z" clip-rule="evenodd"/>
    </g>
    <mask id="6fa1ry5sbb" width="8" height="10" x="8" y="6" maskUnits="userSpaceOnUse">
        <path fill="#fff" fill-rule="evenodd" d="M13.678 8.825c.256 0 1.193.024 1.811.936-.053.042-.984.589-.984 1.802 0 1.398 1.182 1.897 1.223 1.909-.012.03-.192.678-.63 1.338-.39.577-.803 1.165-1.42 1.165-.63 0-.787-.378-1.503-.378-.705 0-.956.39-1.52.39-.571 0-.967-.54-1.422-1.2-.53-.781-.96-1.988-.96-3.128 0-1.838 1.158-2.81 2.3-2.81.6 0 1.107.408 1.491.408.355 0 .92-.432 1.614-.432zm.14-2.282c.01.054.017.12.017.187 0 .486-.204.972-.484 1.32-.308.385-.827.673-1.24.673-.047 0-.094-.006-.123-.012-.005-.024-.017-.096-.017-.168 0-.493.239-.973.5-1.28.333-.401.886-.702 1.346-.72z" clip-rule="evenodd"/>
    </mask>
    <g mask="url(#6fa1ry5sbb)">
        <path fill="#fff" fill-rule="evenodd" d="M3.657 1.928h16.686v18.675H3.657V1.928z" clip-rule="evenodd"/>
    </g>
</svg>
