<svg xmlns="http://www.w3.org/2000/svg" width="24" height="24" fill="none" viewBox="0 0 24 24">
    <circle cx="12" cy="12" r="7.981" stroke="#1C1A42" stroke-width="2.5"/>
    <path fill="#1C1A42" fill-rule="evenodd" d="M15.323 9.36c0 2.48-2.41 2.64-2.41 4.365 0 .106-.074.14-.134.14h-1.73c-.075 0-.164-.056-.164-.189-.023-2.725 2.423-2.677 2.423-4.205 0-.757-.343-1.22-1.193-1.22-.791 0-1.09.547-1.239 1.024-.015.098-.104.14-.194.112l-1.522-.56c-.09-.015-.135-.113-.105-.183.448-1.135 1.299-2.019 3.179-2.019 2.253 0 3.09 1.402 3.09 2.734zm-3.284 5.45c.638 0 1.154.516 1.154 1.154 0 .652-.516 1.154-1.154 1.154-.638 0-1.154-.502-1.154-1.153 0-.639.516-1.154 1.154-1.154z" clip-rule="evenodd"/>
</svg>
