<svg xmlns="http://www.w3.org/2000/svg" width="24" height="24" fill="none" viewBox="0 0 24 24">
    <path fill="#1C1A42" d="M15.938 9.476c.39-.39.39-1.024 0-1.414-.39-.39-1.024-.39-1.414 0l1.414 1.414zm-7.876 5.047c-.39.391-.39 1.024 0 1.415.39.39 1.024.39 1.414 0l-1.414-1.415zm1.414-6.461c-.39-.39-1.023-.39-1.414 0-.39.39-.39 1.024 0 1.414l1.414-1.414zm5.048 7.876c.39.39 1.023.39 1.414 0 .39-.39.39-1.024 0-1.415l-1.414 1.415zm0-7.876l-6.462 6.462 1.414 1.414 6.462-6.462-1.414-1.414zM8.062 9.476l6.462 6.462 1.414-1.415-6.462-6.461-1.414 1.414z"/>
    <circle cx="12" cy="12" r="7.981" stroke="#1C1A42" stroke-width="2.5"/>
</svg>
