<svg xmlns="http://www.w3.org/2000/svg" width="36" height="36" fill="none" viewBox="0 0 36 36">
    <circle cx="18" cy="18" r="18" fill="#000" fill-opacity=".7"/>
    <mask id="cy32vsnnpa" fill="#fff">
        <path fill-rule="evenodd" d="M10.394 16.276c1.4.254 3.403.553 5.072.553 1.184 0 2.538-.15 3.724-.33 1.287-.92 2.864-1.462 4.567-1.462l.166.001c.439-.493.707-1.154.707-1.88 0-1.528-1.192-2.768-2.661-2.768-.105 0-.208.006-.31.018-.14-1.392-1.271-2.478-2.646-2.478-.422 0-.82.102-1.175.284-.44-.899-1.337-1.515-2.373-1.515-1.035 0-1.933.616-2.373 1.515-.354-.182-.753-.284-1.174-.284-1.375 0-2.507 1.086-2.646 2.479-.102-.013-.206-.02-.31-.02-1.47 0-2.661 1.24-2.661 2.77 0 1.153.677 2.141 1.64 2.558l1.06 7.606C9.455 26.578 12.239 29 15.525 29h1.707c.459 0 .9-.082 1.31-.235-.676-.6-1.248-1.317-1.685-2.117h-1.332c-2.113 0-3.902-1.558-4.194-3.65l-.937-6.723zm9.737 11.363c-.652-.5-1.198-1.129-1.599-1.85.401.721.947 1.351 1.6 1.85z" clip-rule="evenodd"/>
    </mask>
    <path fill="#fff" fill-rule="evenodd" d="M10.394 16.276c1.4.254 3.403.553 5.072.553 1.184 0 2.538-.15 3.724-.33 1.287-.92 2.864-1.462 4.567-1.462l.166.001c.439-.493.707-1.154.707-1.88 0-1.528-1.192-2.768-2.661-2.768-.105 0-.208.006-.31.018-.14-1.392-1.271-2.478-2.646-2.478-.422 0-.82.102-1.175.284-.44-.899-1.337-1.515-2.373-1.515-1.035 0-1.933.616-2.373 1.515-.354-.182-.753-.284-1.174-.284-1.375 0-2.507 1.086-2.646 2.479-.102-.013-.206-.02-.31-.02-1.47 0-2.661 1.24-2.661 2.77 0 1.153.677 2.141 1.64 2.558l1.06 7.606C9.455 26.578 12.239 29 15.525 29h1.707c.459 0 .9-.082 1.31-.235-.676-.6-1.248-1.317-1.685-2.117h-1.332c-2.113 0-3.902-1.558-4.194-3.65l-.937-6.723zm9.737 11.363c-.652-.5-1.198-1.129-1.599-1.85.401.721.947 1.351 1.6 1.85z" clip-rule="evenodd"/>
    <path fill="#fff" d="M10.394 16.276l.268-1.476c-.473-.086-.96.06-1.306.394-.347.333-.514.812-.447 1.289l1.485-.207zm8.796.224l.223 1.483c.235-.035.457-.125.65-.264l-.873-1.22zm4.733-1.462l-.031 1.5c.439.01.86-.175 1.152-.503l-1.121-.997zm-2.264-4.63l-1.492.15c.04.401.24.77.554 1.021.315.252.718.367 1.118.319l-.18-1.49zm-3.821-2.194l-1.348.659c.177.362.492.637.875.764.382.128.8.096 1.158-.088l-.685-1.335zm-4.746 0l-.684 1.334c.358.184.776.216 1.158.09.382-.128.697-.403.874-.765l-1.348-.66zm-3.82 2.194l-.18 1.49c.4.048.803-.067 1.117-.319.315-.252.515-.62.555-1.021l-1.492-.15zM7.94 15.718l1.486-.207c-.073-.519-.41-.962-.89-1.17l-.596 1.377zm1.06 7.606l-1.486.207 1.486-.207zm9.541 5.443l.523 1.407c.493-.184.855-.613.952-1.13.097-.518-.085-1.048-.479-1.398l-.996 1.121zm-1.685-2.117l1.316-.719c-.262-.482-.767-.782-1.316-.782v1.5zm-5.526-3.65l1.486-.208-1.486.207zm7.201 2.79l1.311-.73c-.28-.505-.828-.804-1.406-.768-.578.037-1.083.403-1.298.94l1.393.557zm1.6 1.85l1.128.987c.273-.312.405-.723.364-1.136-.041-.413-.252-.79-.581-1.043l-.912 1.192zm-1.6-1.85l-1.393-.558c-.167.42-.137.891.082 1.286l1.311-.729zm1.6 1.85l-.912 1.191c.627.48 1.52.391 2.04-.204l-1.129-.987zm-4.667-12.31c-1.527 0-3.423-.279-4.803-.529l-.535 2.952c1.417.257 3.53.577 5.338.577v-3zm3.502-.313c-1.156.174-2.426.313-3.501.313v3c1.293 0 2.731-.163 3.947-.346l-.446-2.967zm4.79-1.48c-2.027 0-3.907.647-5.44 1.744l1.746 2.44c1.04-.745 2.314-1.183 3.694-1.183v-3zm.197.003c-.066-.002-.131-.002-.197-.002v3l.135.001.062-3zm-.824-.38c0 .351-.13.659-.328.883l2.242 1.993c.678-.763 1.086-1.776 1.086-2.876h-3zm-1.161-1.27c.585 0 1.16.512 1.16 1.27h3c0-2.3-1.806-4.27-4.16-4.27v3zm-.13.009c.042-.005.085-.008.13-.008v-3c-.165 0-.329.01-.49.03l.36 2.978zM19.013 9.43c.549 0 1.085.445 1.153 1.128l2.985-.3c-.21-2.102-1.937-3.828-4.138-3.828v3zm-.49.119c.149-.077.313-.119.49-.119v-3c-.667 0-1.3.162-1.86.45l1.37 2.669zm-3.058-1.35c.418 0 .817.248 1.025.674l2.695-1.318c-.67-1.372-2.066-2.356-3.72-2.356v3zm-1.025.674c.208-.426.608-.674 1.025-.674v-3c-1.653 0-3.05.984-3.72 2.356l2.695 1.318zm-2.522.557c.176 0 .341.042.49.118l1.369-2.669c-.56-.287-1.192-.449-1.86-.449v3zm-1.154 1.128c.069-.683.605-1.128 1.154-1.128v-3c-2.201 0-3.928 1.726-4.139 3.829l2.985.299zM8.961 11.89c.045 0 .088.002.13.008l.36-2.979c-.16-.02-.324-.03-.49-.03v3zm-1.16 1.269c0-.758.575-1.27 1.16-1.27v-3c-2.353 0-4.16 1.97-4.16 4.27h3zm.736 1.181c-.409-.176-.736-.62-.736-1.181h-3c0 1.745 1.027 3.278 2.544 3.935l1.192-2.754zm1.95 8.776l-1.06-7.606-2.972.414 1.06 7.606 2.972-.414zm5.038 4.385c-2.538 0-4.688-1.871-5.038-4.385l-2.972.414c.557 3.997 3.975 6.971 8.01 6.971v-3zm1.707 0h-1.707v3h1.707v-3zm.788-.14c-.245.09-.51.14-.788.14v3c.64 0 1.259-.115 1.833-.328L18.02 27.36zm-2.48.006c.52.954 1.201 1.806 2.006 2.52l1.992-2.242c-.548-.487-1.011-1.067-1.365-1.715l-2.633 1.437zm-.014.781h1.33v-3h-1.33v3zm-5.68-4.943c.395 2.834 2.818 4.944 5.68 4.944v-3c-1.365 0-2.52-1.006-2.71-2.358l-2.97.414zm-.937-6.722l.937 6.722 2.97-.414-.936-6.722-2.971.414zm8.312 10.034c.502.903 1.184 1.69 1.999 2.313l1.823-2.383c-.49-.374-.9-.847-1.2-1.387l-2.622 1.457zm2.704-.172l-.019.044-.005.011-.001.004v-.001l.002-.003.004-.01.019-.045-2.786-1.114.019-.044c.002-.005.003-.009.005-.01l.001-.004-.002.003c0 .003-.002.006-.004.011l-.019.044 2.786 1.114zm1.117.102c-.489-.374-.899-.847-1.199-1.387l-2.622 1.457c.502.903 1.184 1.69 1.999 2.313l1.823-2.383zm-2.04.204l-.025.03-.017.02-.01.013-.002.003.002-.003.01-.012.017-.021.025-.03 2.258 1.975.026-.03.016-.02.01-.012.002-.003.001-.001-.003.004-.01.012-.016.02-.026.03-2.258-1.975z" mask="url(#cy32vsnnpa)"/>
    <mask id="c139yhl7qb" fill="#fff">
        <path fill-rule="evenodd" d="M29.73 22.89c0 3.3-2.673 5.974-5.972 5.974-3.299 0-5.973-2.675-5.973-5.973 0-3.299 2.674-5.973 5.973-5.973s5.973 2.674 5.973 5.973zm-2.985-1.803c.264-.31.25-.777-.044-1.07-.308-.308-.808-.308-1.117 0l-1.811 1.811-1.812-1.81-.047-.045c-.31-.264-.777-.249-1.07.044-.308.309-.308.809 0 1.117l1.812 1.811-1.812 1.812-.044.048c-.264.31-.249.776.044 1.07.309.308.809.308 1.117 0l1.812-1.812 1.811 1.811.048.044c.31.264.776.25 1.07-.044.308-.308.308-.808 0-1.117l-1.812-1.812 1.811-1.81.044-.048z" clip-rule="evenodd"/>
    </mask>
    <path fill="#fff" fill-rule="evenodd" d="M29.73 22.89c0 3.3-2.673 5.974-5.972 5.974-3.299 0-5.973-2.675-5.973-5.973 0-3.299 2.674-5.973 5.973-5.973s5.973 2.674 5.973 5.973zm-2.985-1.803c.264-.31.25-.777-.044-1.07-.308-.308-.808-.308-1.117 0l-1.811 1.811-1.812-1.81-.047-.045c-.31-.264-.777-.249-1.07.044-.308.309-.308.809 0 1.117l1.812 1.811-1.812 1.812-.044.048c-.264.31-.249.776.044 1.07.309.308.809.308 1.117 0l1.812-1.812 1.811 1.811.048.044c.31.264.776.25 1.07-.044.308-.308.308-.808 0-1.117l-1.812-1.812 1.811-1.81.044-.048z" clip-rule="evenodd"/>
    <path fill="#fff" d="M26.701 20.017l-1.414 1.414 1.415-1.414zm.044 1.07l1.47 1.356.028-.03.027-.031-1.524-1.295zm-1.16-1.07l1.413 1.414-1.414-1.414zm-1.812 1.811l-1.414 1.415 1.414 1.414 1.414-1.415-1.414-1.414zm-1.812-1.81l1.415-1.415-.029-.029-.03-.027-1.356 1.47zm-.047-.045l1.356-1.47-.03-.028-.031-.026-1.295 1.524zm-1.07 1.161L19.43 22.55l1.414-1.415zm1.812 1.811l1.414 1.415 1.414-1.415-1.414-1.414-1.414 1.415zm-1.812 1.812l-1.414-1.414-.029.029-.027.03 1.47 1.355zm-.044.048l-1.47-1.356-.027.03-.027.03 1.524 1.296zm.044 1.07l1.414-1.415-1.414 1.414zm1.117 0l1.415 1.414-1.415-1.415zm1.812-1.812l1.414-1.414-1.414-1.415-1.415 1.415 1.415 1.414zm1.811 1.811L24.17 27.29l.029.028.03.027 1.355-1.47zm.048.044l-1.356 1.47.03.028.03.026 1.296-1.524zm1.07-.044l-1.415-1.414 1.415 1.414zm0-1.117l-1.415 1.414 1.415-1.414zm-1.812-1.812l-1.414-1.414-1.414 1.414 1.414 1.415 1.414-1.415zm1.811-1.81l1.415 1.414.028-.029.028-.03-1.47-1.356zm-2.943 9.729c4.403 0 7.973-3.57 7.973-7.973h-4c0 2.194-1.779 3.973-3.973 3.973v4zm-7.973-7.973c0 4.403 3.57 7.973 7.973 7.973v-4c-2.194 0-3.973-1.78-3.973-3.973h-4zm7.973-7.973c-4.403 0-7.973 3.57-7.973 7.973h4c0-2.194 1.779-3.973 3.973-3.973v-4zm7.973 7.973c0-4.403-3.57-7.973-7.973-7.973v4c2.194 0 3.973 1.779 3.973 3.973h4zm-6.444-1.46c-.45-.45-.47-1.163-.066-1.64l3.049 2.59c.932-1.097.881-2.742-.154-3.778l-2.829 2.828zm1.712 0c-.473.473-1.24.473-1.712 0l2.829-2.828c-1.09-1.09-2.856-1.09-3.946 0l2.828 2.828zm-1.812 1.811l1.811-1.81-2.828-2.83-1.811 1.812 2.828 2.828zm-4.64-1.81l1.812 1.81 2.828-2.828-1.811-1.811-2.829 2.828zm.01.011l.049.044 2.711-2.94-.047-.044-2.712 2.94zm1.701-.012c-.45.45-1.162.471-1.64.066l2.59-3.048c-1.097-.933-2.742-.882-3.778.154l2.828 2.828zm0-1.71c.473.472.473 1.238 0 1.71l-2.828-2.828c-1.09 1.09-1.09 2.856 0 3.945l2.828-2.828zm1.812 1.81l-1.812-1.811-2.828 2.829 1.811 1.81 2.829-2.828zm-1.811 4.64l1.81-1.811-2.828-2.829-1.811 1.812 2.829 2.828zm.011-.01l.044-.048-2.94-2.712-.044.048 2.94 2.712zm-.012-1.7c.45.449.472 1.162.066 1.639l-3.048-2.59c-.933 1.097-.882 2.743.154 3.779l2.828-2.829zm-1.71 0c.472-.473 1.238-.473 1.71 0l-2.828 2.828c1.09 1.09 2.856 1.09 3.946 0l-2.829-2.829zm1.81-1.812l-1.81 1.811 2.828 2.828 1.811-1.811-2.829-2.828zm4.64 1.811l-1.81-1.811-2.83 2.828 1.812 1.811 2.829-2.828zm-.01-.012l-.048-.044-2.712 2.94.048.044 2.712-2.94zm-1.7.012c.449-.45 1.162-.471 1.64-.066l-2.591 3.048c1.098.933 2.743.882 3.779-.153l-2.829-2.829zm0 1.711c-.473-.472-.473-1.238 0-1.71l2.828 2.828c1.09-1.09 1.09-2.857 0-3.946l-2.829 2.828zm-1.812-1.811l1.811 1.811 2.829-2.828-1.812-1.812-2.828 2.829zm1.811-4.64l-1.811 1.811 2.828 2.829 1.812-1.811-2.829-2.829zm-.012.01l-.044.048 2.94 2.712.045-.047-2.94-2.712z" mask="url(#c139yhl7qb)"/>
</svg>
